HIERARCHY
ROOT Hips
{
	OFFSET 0.000000 0.000000 0.000000
	CHANNELS 6 Xposition Yposition Zposition Xrotation Yrotation Zrotation
	JOINT LeftUpLeg_virtual
	{
		OFFSET 0.000000 0.000000 0.000000
		CHANNELS 3 Xrotation Yrotation Zrotation
		JOINT LeftUpLeg
		{
			OFFSET 15.427100 -6.655098 0.678600
			CHANNELS 3 Xrotation Yrotation Zrotation
			JOINT LeftLeg
			{
				OFFSET 4.081073 -39.591068 13.024000
				CHANNELS 3 Xrotation Yrotation Zrotation
				JOINT LeftFoot
				{
					OFFSET -4.081074 -37.707932 -15.979700
					CHANNELS 3 Xrotation Yrotation Zrotation
					JOINT LeftToeBase
					{
						OFFSET 5.346399 -15.068900 20.645000
						CHANNELS 3 Xrotation Yrotation Zrotation
						JOINT LeftToe_End
						{
							OFFSET 2.754700 0.931300 11.300900
							CHANNELS 3 Xrotation Yrotation Zrotation
							End Site
							{
								OFFSET 0 0 0
							}
						}
					}
				}
			}
		}
	}
	JOINT RightUpLeg_virtual
	{
		OFFSET 0.000000 0.000000 0.000000
		CHANNELS 3 Xrotation Yrotation Zrotation
		JOINT RightUpLeg
		{
			OFFSET -15.569500 -6.655098 0.678600
			CHANNELS 3 Xrotation Yrotation Zrotation
			JOINT RightLeg
			{
				OFFSET -4.081825 -39.591045 13.023800
				CHANNELS 3 Xrotation Yrotation Zrotation
				JOINT RightFoot
				{
					OFFSET 4.081824 -37.707954 -15.979600
					CHANNELS 3 Xrotation Yrotation Zrotation
					JOINT RightToeBase
					{
						OFFSET -5.346400 -15.068900 20.645000
						CHANNELS 3 Xrotation Yrotation Zrotation
						JOINT RightToe_End
						{
							OFFSET -2.754700 0.931300 11.300900
							CHANNELS 3 Xrotation Yrotation Zrotation
							End Site
							{
								OFFSET 0 0 0
							}
						}
					}
				}
			}
		}
	}
	JOINT Spine_virtual
	{
		OFFSET 0.000000 0.000000 0.000000
		CHANNELS 3 Xrotation Yrotation Zrotation
		JOINT Spine
		{
			OFFSET -0.279200 12.230698 -2.892100
			CHANNELS 3 Xrotation Yrotation Zrotation
			JOINT Spine1
			{
				OFFSET -0.232667 10.192268 -1.242267
				CHANNELS 3 Xrotation Yrotation Zrotation
				JOINT Spine1_split
				{
					OFFSET -0.232667 10.192268 -1.242267
					CHANNELS 3 Xrotation Yrotation Zrotation
					JOINT Spine2
					{
						OFFSET -0.232667 10.192268 -1.242267
						CHANNELS 3 Xrotation Yrotation Zrotation
						JOINT Neck_virtual
						{
							OFFSET 0.000000 0.000000 0.000000
							CHANNELS 3 Xrotation Yrotation Zrotation
							JOINT Neck
							{
								OFFSET -0.418800 17.814194 8.416900
								CHANNELS 3 Xrotation Yrotation Zrotation
								JOINT Head
								{
									OFFSET 0.000000 7.031097 3.806800
									CHANNELS 3 Xrotation Yrotation Zrotation
									JOINT HeadTop_End
									{
										OFFSET 0.000000 24.646606 12.978600
										CHANNELS 3 Xrotation Yrotation Zrotation
										End Site
										{
											OFFSET 0 0 0
										}
									}
								}
							}
						}
						JOINT LeftShoulder_virtual
						{
							OFFSET 0.000000 0.000000 0.000000
							CHANNELS 3 Xrotation Yrotation Zrotation
							JOINT LeftShoulder
							{
								OFFSET 8.476499 7.247704 -3.868750
								CHANNELS 3 Xrotation Yrotation Zrotation
								JOINT LeftShoulder_split
								{
									OFFSET 8.476499 7.247704 -3.868750
									CHANNELS 3 Xrotation Yrotation Zrotation
									JOINT LeftArm
									{
										OFFSET 9.308998 -2.777710 0.208600
										CHANNELS 3 Xrotation Yrotation Zrotation
										JOINT LeftForeArm
										{
											OFFSET 29.972298 0.000000 0.000000
											CHANNELS 3 Xrotation Yrotation Zrotation
											JOINT LeftHand
											{
												OFFSET 26.026505 0.000000 0.000000
												CHANNELS 3 Xrotation Yrotation Zrotation
												End Site
												{
													OFFSET 0 0 0
												}
											}
										}
									}
								}
							}
						}
						JOINT RightShoulder_virtual
						{
							OFFSET 0.000000 0.000000 0.000000
							CHANNELS 3 Xrotation Yrotation Zrotation
							JOINT RightShoulder
							{
								OFFSET -7.570500 7.247704 -3.868750
								CHANNELS 3 Xrotation Yrotation Zrotation
								JOINT RightShoulder_split
								{
									OFFSET -7.570500 7.247704 -3.868750
									CHANNELS 3 Xrotation Yrotation Zrotation
									JOINT RightArm
									{
										OFFSET -9.308998 -2.777710 0.208500
										CHANNELS 3 Xrotation Yrotation Zrotation
										JOINT RightForeArm
										{
											OFFSET -29.972300 0.000000 0.000000
											CHANNELS 3 Xrotation Yrotation Zrotation
											JOINT RightHand
											{
												OFFSET -26.026505 0.000000 0.000000
												CHANNELS 3 Xrotation Yrotation Zrotation
												End Site
												{
													OFFSET 0 0 0
												}
											}
										}
									}
								}
							}
						}
					}
				}
			}
		}
	}
}
MOTION
Frames: 8
Frame Time: 0.03333333
0.444716 95.297440 -0.888676 0.000000 0.000000 0.000000 -2.453651 6.447327 -2.202031 -2.826494 10.268499 11.720459 10.168105 -4.477655 -0.134354 -5.750372 1.886967 -8.484916 1.957868 0.287025 -2.865183 0.000000 0.000000 0.000000 -1.940334 7.089433 -2.520020 -1.693201 -4.083104 -0.689620 6.565946 4.845426 0.959751 -3.025736 1.114888 -2.076153 0.406621 -0.373157 -0.126505 0.000000 0.000000 0.000000 -2.395219 9.858279 -2.624942 8.258969 -0.876232 1.475220 2.584896 0.235496 -0.400451 0.144185 -1.833419 0.970054 0.000000 0.000000 0.000000 -3.933593 -0.038395 0.265061 -0.223530 0.900194 -0.110211 4.242424 -2.343094 -1.206655 0.000000 0.000000 0.000000 -3.951111 -0.377924 0.334761 0.473538 -2.766912 -7.220564 -2.324767 -2.376140 0.742750 4.913363 -3.719584 -73.121137 5.026161 -12.095701 1.521961 0.000000 0.000000 0.000000 -4.583319 -0.673230 0.338711 0.486203 8.000892 6.216539 -4.379133 -1.796136 -0.283167 4.803456 13.481403 74.655668 17.997321 18.971209 -3.620098 0.000000 0.000000 0.000000 
0.428916 95.378517 -0.785461 0.000000 0.000000 0.000000 -2.228034 6.381429 -2.230064 -2.749879 10.358817 11.894033 9.788793 -4.354359 -0.262887 -6.150512 1.654914 -8.293289 2.179505 0.265875 -2.800413 0.000000 0.000000 0.000000 -1.850184 6.927054 -2.512798 -1.778246 -3.937735 -0.622837 6.688392 4.910138 0.936749 -3.021858 1.275878 -2.330739 0.815360 -0.396064 -0.082426 0.000000 0.000000 0.000000 -2.020323 9.779870 -2.619589 8.357919 -0.842594 1.489175 2.596099 0.190254 -0.422556 0.380526 -2.084686 0.926404 0.000000 0.000000 0.000000 -3.921192 -0.046012 0.250839 -0.182431 1.012356 -0.182349 4.350847 -2.523437 -1.066759 0.000000 0.000000 0.000000 -3.947788 -0.410795 0.312760 0.518666 -2.957017 -7.329411 -2.253598 -2.334551 0.857750 4.727706 -3.626596 -73.232844 4.993550 -12.228496 1.464653 0.000000 0.000000 0.000000 -4.579962 -0.678970 0.365160 0.516164 8.019854 6.324803 -4.269872 -1.744180 -0.433812 4.925160 13.346937 74.577524 17.988341 19.131532 -3.642766 0.000000 0.000000 0.000000 
0.383145 95.370209 -0.683266 0.000000 0.000000 0.000000 -2.058506 6.218496 -2.253842 -2.789557 10.511939 12.174291 9.511756 -4.218855 -0.262770 -6.560882 1.291111 -8.424490 2.295024 0.234036 -2.633884 0.000000 0.000000 0.000000 -1.731017 6.754870 -2.532743 -2.076812 -3.770997 -0.497910 6.991625 5.122855 0.965599 -2.870861 1.500061 -2.490630 0.896499 -0.399499 -0.131130 0.000000 0.000000 0.000000 -1.677780 9.533295 -2.623145 8.648791 -0.797371 1.548622 2.524481 0.143458 -0.435258 0.485880 -2.194432 0.831387 0.000000 0.000000 0.000000 -3.928842 -0.066252 0.246458 -0.118197 1.192028 -0.233399 4.334805 -2.673782 -1.006087 0.000000 0.000000 0.000000 -3.987991 -0.450830 0.308159 0.564435 -3.241575 -7.454750 -2.150473 -2.217123 1.003103 4.524878 -3.440189 -73.288428 5.082682 -12.300489 1.351696 0.000000 0.000000 0.000000 -4.622196 -0.702365 0.391035 0.540662 7.948466 6.576095 -4.179879 -1.619289 -0.621552 5.220873 13.528087 74.150726 17.901359 19.342215 -3.637383 0.000000 0.000000 0.000000 
0.310139 95.255722 -0.545509 0.000000 0.000000 0.000000 -1.954332 6.008948 -2.261690 -2.832427 10.614134 12.458467 9.377506 -4.086844 -0.150780 -6.907547 0.891546 -8.827266 2.271138 0.198757 -2.365131 0.000000 0.000000 0.000000 -1.595583 6.538246 -2.557993 -2.544641 -3.667185 -0.335397 7.444293 5.453968 1.058076 -2.618615 1.742952 -2.600708 0.691277 -0.392321 -0.233193 0.000000 0.000000 0.000000 -1.409234 9.086693 -2.604569 9.058954 -0.748928 1.610166 2.367388 0.098719 -0.421525 0.443996 -2.158949 0.753861 0.000000 0.000000 0.000000 -3.942251 -0.094351 0.260654 -0.026850 1.413246 -0.261130 4.193483 -2.791308 -1.014551 0.000000 0.000000 0.000000 -4.060934 -0.495331 0.331260 0.611366 -3.553610 -7.587648 -2.154886 -2.020703 1.052238 4.333096 -3.202774 -73.264707 5.295768 -12.252296 1.200902 0.000000 0.000000 0.000000 -4.707543 -0.741962 0.424767 0.566407 7.779644 6.928065 -4.130743 -1.471425 -0.843469 5.647933 13.999023 73.449826 17.734250 19.591365 -3.606154 0.000000 0.000000 0.000000 
0.189185 95.084160 -0.330372 0.000000 0.000000 0.000000 -1.888670 5.700098 -2.246345 -2.640824 10.597781 12.632077 9.351495 -3.866319 0.057923 -7.253634 0.633111 -9.213910 2.194731 0.174827 -2.122018 0.000000 0.000000 0.000000 -1.443847 6.190066 -2.558258 -3.121498 -3.701776 -0.184650 7.987129 5.831729 1.206894 -2.311665 1.926333 -2.786189 0.489077 -0.381798 -0.324712 0.000000 0.000000 0.000000 -1.227764 8.433746 -2.542719 9.493865 -0.712491 1.630013 2.150945 0.054768 -0.366509 0.384408 -2.019857 0.721792 0.000000 0.000000 0.000000 -3.948353 -0.131426 0.306089 0.086029 1.665405 -0.242734 3.950752 -2.869140 -1.078801 0.000000 0.000000 0.000000 -4.149418 -0.543443 0.390185 0.654981 -3.844509 -7.746469 -2.264889 -1.778267 0.994912 4.150291 -2.937201 -73.141538 5.617437 -12.053692 1.028057 0.000000 0.000000 0.000000 -4.815250 -0.795221 0.483135 0.606069 7.511554 7.311601 -4.058618 -1.346402 -1.085684 6.158218 14.711377 72.571798 17.497905 19.840274 -3.555720 0.000000 0.000000 0.000000 
-0.011908 94.913567 -0.115612 0.000000 0.000000 0.000000 -1.828410 5.260707 -2.190491 -2.160982 10.417207 12.659615 9.210070 -3.465575 0.323998 -7.748134 0.643215 -9.380922 2.254635 0.166905 -2.036344 0.000000 0.000000 0.000000 -1.264489 5.706609 -2.511812 -3.768340 -3.890308 -0.065575 8.566577 6.224950 1.410410 -2.009596 2.018561 -3.115237 0.485182 -0.367222 -0.355129 0.000000 0.000000 0.000000 -1.070901 7.595484 -2.455496 9.843148 -0.689947 1.585351 1.906028 0.001174 -0.259689 0.315091 -1.802024 0.696763 0.000000 0.000000 0.000000 -3.943221 -0.179815 0.389015 0.185180 1.946618 -0.158670 3.626403 -2.910164 -1.168749 0.000000 0.000000 0.000000 -4.242535 -0.600480 0.488716 0.685586 -4.074074 -7.937090 -2.399008 -1.515538 0.865822 3.967155 -2.661383 -72.902646 6.010005 -11.686852 0.836731 0.000000 0.000000 0.000000 -4.916173 -0.857349 0.576632 0.673507 7.166639 7.660819 -3.974045 -1.261569 -1.299629 6.701234 15.578536 71.625926 17.216501 20.045381 -3.494813 0.000000 0.000000 0.000000 
-0.261775 94.750214 0.083199 0.000000 0.000000 0.000000 -1.724037 4.724569 -2.103754 -1.473513 10.153131 12.625717 8.748472 -2.797124 0.548576 -8.423868 0.888782 -9.496503 2.521733 0.152885 -2.179459 0.000000 0.000000 0.000000 -1.039931 5.050139 -2.425988 -4.482654 -4.153918 0.026916 9.169136 6.667505 1.642887 -1.770841 2.073947 -3.577715 0.633409 -0.336790 -0.312606 0.000000 0.000000 0.000000 -0.898769 6.583265 -2.366156 10.059256 -0.683705 1.473598 1.674289 -0.070793 -0.111198 0.346217 -1.559270 0.709341 0.000000 0.000000 0.000000 -3.921015 -0.239198 0.506536 0.248847 2.254587 -0.002737 3.287145 -2.902240 -1.257432 0.000000 0.000000 0.000000 -4.320305 -0.677007 0.619665 0.698346 -4.221956 -8.166429 -2.519355 -1.280086 0.711425 3.822292 -2.338057 -72.554859 6.422672 -11.206804 0.624675 0.000000 0.000000 0.000000 -4.998994 -0.928818 0.708556 0.767232 6.767357 7.958843 -3.843333 -1.203331 -1.465577 7.205360 16.528003 70.694343 16.912587 20.168876 -3.434340 0.000000 0.000000 0.000000 
-0.571479 94.637436 0.367126 0.000000 0.000000 0.000000 -1.557956 4.096479 -2.000117 -0.719907 9.803538 12.690256 8.075702 -1.934260 0.635061 -8.972876 1.220338 -9.967416 2.720024 0.126874 -2.444059 0.000000 0.000000 0.000000 -0.743694 4.317646 -2.308622 -5.200814 -4.347768 0.173011 9.748065 7.177491 1.871980 -1.632181 2.110956 -4.088143 0.745011 -0.285762 -0.229788 0.000000 0.000000 0.000000 -0.712917 5.416571 -2.299208 10.120822 -0.694269 1.325008 1.486824 -0.172112 0.058428 0.411281 -1.372050 0.674480 0.000000 0.000000 0.000000 -3.896903 -0.314512 0.638704 0.271038 2.571586 0.236237 3.002025 -2.793882 -1.334265 0.000000 0.000000 0.000000 -4.365987 -0.773555 0.768932 0.694251 -4.270482 -8.396251 -2.570129 -1.154186 0.632670 3.721957 -1.964520 -72.133198 6.796378 -10.757473 0.379948 0.000000 0.000000 0.000000 -5.053328 -1.010768 0.868055 0.870680 6.334291 8.210570 -3.694994 -1.129550 -1.549085 7.609121 17.460904 69.843855 16.600333 20.205887 -3.379411 0.000000 0.000000 0.000000 
